{"title":"Pioneer.One.S01E01.Xvid-VODO.mp4 (iPod, iPhone, iPad)","uid":5636344,"size":296238549,"categoryP":"video","categoryS":"tv_shows","magnet":"?xt=urn:btih:26d3e52f45d83c5e48003c58fcbe6440fd19d5f3&amp;dn=Pioneer.One.S01E01.Xvid-VODO.mp4+%28iPod%2C+iPhone%2C+iPad%29&amp;tr=udp%3A%2F%2Ftracker.openbittorrent.com%3A80&amp;tr=udp%3A%2F%2Fopen.demonii.com%3A1337&amp;tr=udp%3A%2F%2Ftracker.coppersurfer.tk%3A6969&amp;tr=udp%3A%2F%2Fexodus.desync.com%3A6969","seeders":0,"leechers":1,"uploader":"H4X04","files":1,"time":1276906514,"description":"General\nComplete name                    : Z:TempPioneer.One.S01E01.Xvid-VODO.mp4\nFormat                           : MPEG-4\nCodec ID                         : M4V \nFile size                        : 283 MiB\nDuration                         : 35mn 31s\nOverall bit rate                 : 1 112 Kbps\nMovie name                       : Pioneer.One.S01E01.Xvid-VODO\nTrack name/Position              : 1\nTrack name/Total                 : 7\nGenre                            : Drama\nEncoded date                     : 2010\nWriting application              : Lavf52.0.0\nComment                          : QuickTime 6.0 or greater\nDescription                      : \nAn object in the sky spreads radiation over North America. Fearing terrorism, U.S. Homeland Security agents are dispatched to investigate and contain the damage. What they discover will have implications for the entire world.\n\ntvsh                             : Pioneer One\ntven                             : Pilot\ntvsn                             : 1\ntves                             : 1\n\nVideo\nID                               : 1\nFormat                           : MPEG-4 Visual\nFormat profile                   : Simple@L1\nFormat settings, BVOP            : No\nFormat settings, QPel            : No\nFormat settings, GMC             : No warppoints\nFormat settings, Matrix          : Default (H.263)\nCodec ID                         : 20\nDuration                         : 35mn 31s\nBit rate mode                    : Constant\nBit rate                         : 1 045 Kbps\nNominal bit rate                 : 1 200 Kbps\nWidth                            : 480 pixels\nHeight                           : 320 pixels\nDisplay aspect ratio             : 16:9\nFrame rate mode                  : Constant\nFrame rate                       : 24.000 fps\nColor space                      : YUV\nChroma subsampling               : 4:2:0\nBit depth                        : 8 bits\nScan type                        : Progressive\nBits/(Pixel*Frame)               : 0.283\nStream size                      : 265 MiB (94%)\nWriting library                  : Lavc52.48.0\nLanguage                         : English\n\nAudio\nID                               : 2\nFormat                           : AAC\nFormat/Info                      : Advanced Audio Codec\nFormat version                   : Version 4\nFormat profile                   : LC\nFormat settings, SBR             : Yes\nFormat settings, PS              : No\nCodec ID                         : 40\nDuration                         : 35mn 31s\nBit rate mode                    : Constant\nBit rate                         : 63.9 Kbps\nNominal bit rate                 : 128 Kbps\nChannel(s)                       : 2 channels\nChannel positions                : Front: L R\nSampling rate                    : 48.0 KHz\nStream size                      : 16.2 MiB (6%)\nLanguage                         : English\n","torrent":{"xt":"urn:btih:26d3e52f45d83c5e48003c58fcbe6440fd19d5f3","amp;dn":"Pioneer.One.S01E01.Xvid-VODO.mp4+%28iPod%2C+iPhone%2C+iPad%29","amp;tr":["udp%3A%2F%2Ftracker.openbittorrent.com%3A80","udp%3A%2F%2Fopen.demonii.com%3A1337","udp%3A%2F%2Ftracker.coppersurfer.tk%3A6969","udp%3A%2F%2Fexodus.desync.com%3A6969"],"infoHash":"26d3e52f45d83c5e48003c58fcbe6440fd19d5f3","infoHashBuffer":{"type":"Buffer","data":[38,211,229,47,69,216,60,94,72,0,60,88,252,190,100,64,253,25,213,243]},"announce":[],"urlList":[]}}